<mxfile host="app.diagrams.net" agent="Mozilla/5.0 (Windows NT 10.0; Win64; x64) AppleWebKit/537.36 (KHTML, like Gecko) Chrome/135.0.0.0 Safari/537.36" version="26.2.14">
  <diagram name="PÃ¡gina-1" id="qKl-N48iIIL1xrA9mvg9">
    <mxGraphModel dx="872" dy="1608" grid="1" gridSize="10" guides="1" tooltips="1" connect="1" arrows="1" fold="1" page="1" pageScale="1" pageWidth="827" pageHeight="1169" math="0" shadow="0">
      <root>
        <mxCell id="0" />
        <mxCell id="1" parent="0" />
        <mxCell id="VCholZaCpvBvsIcfgMD2-11" value="" style="edgeStyle=orthogonalEdgeStyle;rounded=0;orthogonalLoop=1;jettySize=auto;html=1;" edge="1" parent="1" source="VCholZaCpvBvsIcfgMD2-3" target="VCholZaCpvBvsIcfgMD2-4">
          <mxGeometry relative="1" as="geometry" />
        </mxCell>
        <mxCell id="VCholZaCpvBvsIcfgMD2-3" value="&lt;span style=&quot;color: rgb(26, 26, 26);&quot;&gt;Mostrar mensaje:&lt;/span&gt;&lt;div&gt;&lt;span style=&quot;color: rgb(26, 26, 26);&quot;&gt;&amp;nbsp;&quot;Por favor, ingresar&lt;/span&gt;&lt;/div&gt;&lt;div&gt;&lt;span style=&quot;color: rgb(26, 26, 26);&quot;&gt;las medidas&amp;nbsp;&lt;/span&gt;&lt;/div&gt;&lt;div&gt;&lt;span style=&quot;color: rgb(26, 26, 26);&quot;&gt;de la pieza&amp;nbsp;&lt;/span&gt;&lt;/div&gt;&lt;div&gt;&lt;span style=&quot;color: rgb(26, 26, 26);&quot;&gt;del mueble(en cms): &quot;&lt;/span&gt;&lt;/div&gt;" style="shape=parallelogram;html=1;strokeWidth=2;perimeter=parallelogramPerimeter;whiteSpace=wrap;rounded=1;arcSize=12;size=0.23;" vertex="1" parent="1">
          <mxGeometry x="291" y="100" width="208" height="90" as="geometry" />
        </mxCell>
        <mxCell id="VCholZaCpvBvsIcfgMD2-12" value="" style="edgeStyle=orthogonalEdgeStyle;rounded=0;orthogonalLoop=1;jettySize=auto;html=1;" edge="1" parent="1" source="VCholZaCpvBvsIcfgMD2-4" target="VCholZaCpvBvsIcfgMD2-5">
          <mxGeometry relative="1" as="geometry" />
        </mxCell>
        <mxCell id="VCholZaCpvBvsIcfgMD2-4" value="&lt;span style=&quot;color: rgb(26, 26, 26);&quot;&gt;Convertir medidas_en_pulgadas = medidas_en_cms / 2.54&lt;/span&gt;" style="rounded=1;whiteSpace=wrap;html=1;absoluteArcSize=1;arcSize=14;strokeWidth=2;" vertex="1" parent="1">
          <mxGeometry x="313" y="230" width="164" height="90" as="geometry" />
        </mxCell>
        <mxCell id="VCholZaCpvBvsIcfgMD2-13" value="" style="edgeStyle=orthogonalEdgeStyle;rounded=0;orthogonalLoop=1;jettySize=auto;html=1;" edge="1" parent="1" source="VCholZaCpvBvsIcfgMD2-5" target="VCholZaCpvBvsIcfgMD2-8">
          <mxGeometry relative="1" as="geometry" />
        </mxCell>
        <mxCell id="VCholZaCpvBvsIcfgMD2-5" value="&lt;span style=&quot;color: rgb(26, 26, 26);&quot;&gt;Mostrar mensaje: &quot;Las&amp;nbsp;&lt;/span&gt;&lt;div&gt;&lt;span style=&quot;color: rgb(26, 26, 26);&quot;&gt;medidas en pulgadas&amp;nbsp;&lt;/span&gt;&lt;/div&gt;&lt;div&gt;&lt;span style=&quot;color: rgb(26, 26, 26);&quot;&gt;de la pieza ingresada son:&quot;, medidas_en_pulgadas:&lt;/span&gt;&lt;/div&gt;" style="shape=parallelogram;html=1;strokeWidth=2;perimeter=parallelogramPerimeter;whiteSpace=wrap;rounded=1;arcSize=12;size=0.23;" vertex="1" parent="1">
          <mxGeometry x="290" y="360" width="210" height="80" as="geometry" />
        </mxCell>
        <mxCell id="VCholZaCpvBvsIcfgMD2-8" value="Fin" style="strokeWidth=2;html=1;shape=mxgraph.flowchart.start_2;whiteSpace=wrap;" vertex="1" parent="1">
          <mxGeometry x="345" y="480" width="100" height="100" as="geometry" />
        </mxCell>
        <mxCell id="VCholZaCpvBvsIcfgMD2-10" value="" style="edgeStyle=orthogonalEdgeStyle;rounded=0;orthogonalLoop=1;jettySize=auto;html=1;" edge="1" parent="1" source="VCholZaCpvBvsIcfgMD2-9" target="VCholZaCpvBvsIcfgMD2-3">
          <mxGeometry relative="1" as="geometry" />
        </mxCell>
        <mxCell id="VCholZaCpvBvsIcfgMD2-9" value="INICIO" style="strokeWidth=2;html=1;shape=mxgraph.flowchart.start_2;whiteSpace=wrap;" vertex="1" parent="1">
          <mxGeometry x="345" y="-40" width="100" height="100" as="geometry" />
        </mxCell>
      </root>
    </mxGraphModel>
  </diagram>
</mxfile>
